<?xml version="1.0" encoding="UTF-8" standalone="no"?>
<!--
Created with Inkscape (http://www.inkscape.org/)
  © 2026 William C. Canin
  This artwork is protected by copyright.
  Unauthorized use, copying, or modification is prohibited.
-->

<svg
   width="270mm"
   height="270mm"
   viewBox="0 0 270 270"
   version="1.1"
   id="svg1"
   xml:space="preserve"
   inkscape:version="1.4.3 (0d15f75042, 2025-12-25)"
   sodipodi:docname="tildr.svg"
   xmlns:inkscape="http://www.inkscape.org/namespaces/inkscape"
   xmlns:sodipodi="http://sodipodi.sourceforge.net/DTD/sodipodi-0.dtd"
   xmlns:xlink="http://www.w3.org/1999/xlink"
   xmlns="http://www.w3.org/2000/svg"
   xmlns:svg="http://www.w3.org/2000/svg"
   xmlns:rdf="http://www.w3.org/1999/02/22-rdf-syntax-ns#"
   xmlns:cc="http://creativecommons.org/ns#"
   xmlns:dc="http://purl.org/dc/elements/1.1/"><title
     id="title1">Tildr</title><sodipodi:namedview
     id="namedview1"
     pagecolor="#ffffff"
     bordercolor="#000000"
     borderopacity="0.25"
     inkscape:showpageshadow="2"
     inkscape:pageopacity="0.0"
     inkscape:pagecheckerboard="0"
     inkscape:deskcolor="#d1d1d1"
     inkscape:document-units="mm"
     inkscape:zoom="0.32"
     inkscape:cx="490.625"
     inkscape:cy="578.125"
     inkscape:window-width="1071"
     inkscape:window-height="991"
     inkscape:window-x="26"
     inkscape:window-y="23"
     inkscape:window-maximized="0"
     inkscape:current-layer="layer1" /><defs
     id="defs1"><linearGradient
       id="linearGradient23"
       inkscape:collect="always"><stop
         style="stop-color:#13a378;stop-opacity:1;"
         offset="0"
         id="stop23" /><stop
         style="stop-color:#4fba5d;stop-opacity:1;"
         offset="0.58523303"
         id="stop27" /><stop
         style="stop-color:#91d34f;stop-opacity:1;"
         offset="1"
         id="stop26" /></linearGradient><linearGradient
       id="linearGradient24"
       inkscape:collect="always"><stop
         style="stop-color:#35b56e;stop-opacity:1;"
         offset="0"
         id="stop24" /><stop
         style="stop-color:#b6ef56;stop-opacity:1;"
         offset="1"
         id="stop25" /></linearGradient><linearGradient
       inkscape:collect="always"
       xlink:href="#linearGradient24"
       id="linearGradient25"
       x1="139.93321"
       y1="179.32922"
       x2="141.03079"
       y2="15.236699"
       gradientUnits="userSpaceOnUse"
       gradientTransform="matrix(1.1643897,0,0,1.1803141,-26.738641,-13.174977)" /><linearGradient
       inkscape:collect="always"
       xlink:href="#linearGradient23"
       id="linearGradient26"
       x1="134.98523"
       y1="176.37613"
       x2="135.57895"
       y2="79.596344"
       gradientUnits="userSpaceOnUse"
       gradientTransform="matrix(1.4486398,0,0,1.4486403,-69.683362,-4.8662315)" /></defs><g
     inkscape:label="tildr"
     inkscape:groupmode="layer"
     id="layer1"
     style="fill:#1f1f1f;fill-opacity:1"><rect
       style="display:inline;opacity:1;fill:#252529;fill-opacity:1;stroke:none;stroke-width:0;stroke-linecap:round;stroke-linejoin:round;stroke-miterlimit:1"
       id="rect1"
       width="270"
       height="270"
       x="0"
       y="0"
       inkscape:label="background"
       sodipodi:insensitive="true" /><path
       d="m 136.63488,8.8838798 c -4.29403,-0.1728659 -8.87063,1.0411866 -14.00432,4.1585892 0,0 -61.095277,37.100002 -91.643019,55.650124 -7.26792,4.413427 -12.369458,11.435189 -12.369458,21.711584 V 191.8489 c 6.796555,28.66436 100.430807,77.87395 100.443617,66.82279 l 0.15605,-134.83096 c -6.40989,-2.8368 -12.4284,-5.15786 -18.09419,-5.88412 -9.027113,-1.15717 -17.158672,1.61059 -24.929675,12.86614 -0.92466,1.3393 -2.18157,2.36748 -3.634333,2.81244 -1.452796,0.44497 -3.096679,0.28182 -4.677733,-0.70566 -4.267745,-2.66551 -8.495812,-5.53964 -12.180532,-9.04367 -1.775349,-1.68828 -2.317552,-3.75973 -2.074101,-5.81398 0.243452,-2.05423 1.223597,-4.10587 2.433324,-5.97502 10.441132,-16.132295 22.791276,-23.652397 36.589705,-25.08397 1.724783,-0.178944 3.471111,-0.263814 5.239129,-0.259232 12.375996,0.03208 25.795716,4.430088 40.044766,11.368151 15.03123,7.318921 25.61641,8.541201 33.53717,6.416011 7.92073,-2.1252 13.25283,-7.610873 17.74336,-13.931154 1.22567,-1.725051 2.61749,-2.336296 3.89129,-2.27752 1.27383,0.05876 2.37912,0.716319 3.23843,1.279664 4.42294,2.899574 8.38111,6.4303 12.38089,9.818271 1.78943,1.515689 2.71355,3.365839 2.83351,5.258339 0.12007,1.89251 -0.55343,3.80448 -1.84668,5.47974 -7.41234,9.60203 -15.82765,19.38534 -28.05195,24.25386 -8.34039,3.32166 -18.42952,4.33233 -31.11531,1.46869 l 1.43087,122.39424 c 0.15544,13.29551 90.16006,-34.05065 98.29913,-56.01764 1.71243,-5.04071 2.2452,-11.0835 2.18299,-17.86158 l -0.86405,-94.210816 c -0.0439,-4.792208 -0.69185,-8.890768 -2.79497,-12.700256 -2.10309,-3.809475 -5.68014,-7.35733 -11.67146,-10.989357 L 148.94295,13.042469 c -4.00123,-2.425628 -8.0135,-3.9854682 -12.30748,-4.1585892 z"
       style="baseline-shift:baseline;display:none;overflow:visible;fill:url(#linearGradient25);fill-opacity:1;stroke:#ffffff;stroke-width:4.68929;stroke-linecap:round;stroke-linejoin:round;stroke-miterlimit:1;stroke-dasharray:none;stroke-opacity:1;enable-background:accumulate;stop-color:#000000"
       id="path24"
       inkscape:label="logo-curve"
       sodipodi:nodetypes="scsssscsssssssscsssssscsscssccsccss"
       sodipodi:insensitive="true" /><path
       style="display:inline;opacity:1;fill:url(#linearGradient26);fill-opacity:1;stroke:#ffffff;stroke-width:5.79457;stroke-linecap:round;stroke-linejoin:round;stroke-miterlimit:1;stroke-dasharray:none;stroke-opacity:1"
       d="m 114.64464,257.0079 c 3.18249,1.81743 4.8549,0.4784 4.84865,-2.66202 l -0.2689,-135.24741 c -15.09187,-10.83177 -27.62982,-6.99867 -39.740022,7.04436 -2.333662,2.70611 -5.713366,2.99098 -8.271248,1.23593 l -13.024846,-8.93675 c -2.844448,-1.95167 -3.195269,-5.87656 -0.190146,-9.88748 53.544912,-71.466104 95.657692,24.3834 132.435072,-23.102472 2.28206,-2.946506 5.13413,-2.509695 6.84518,-1.140862 l 14.26077,11.408624 c 2.69737,2.157902 2.01614,5.66614 0.38028,8.74662 -10.54458,19.85634 -28.00206,31.65032 -60.84598,26.23984 l 0.57044,123.59344 c 0.0199,4.28662 3.42728,4.11759 5.89446,2.66202 l 78.253,-46.16703 c 8.33844,-4.91945 14.35314,-12.63623 14.25189,-29.84836 l -0.53781,-91.427313 c -0.0559,-9.51528 -3.99176,-18.503701 -21.24339,-28.503815 L 148.9354,15.032659 C 139.89049,9.789669 129.68545,9.3726796 119.356,15.570466 L 36.797107,65.106674 C 27.78035,70.516822 20.743454,78.700868 20.825035,92.107093 l 0.570434,93.740877 c 0.07018,11.53453 6.017061,20.69089 16.732644,26.81026 25.415874,14.51432 76.516527,44.34967 76.516527,44.34967 z"
       id="path1"
       sodipodi:nodetypes="sscsssssssscsssssssssssss"
       inkscape:label="logo-straight-line"
       sodipodi:insensitive="true" /><text
       xml:space="preserve"
       style="font-size:5.75502px;font-family:Ubuntu;-inkscape-font-specification:Ubuntu;writing-mode:lr-tb;direction:ltr;opacity:1;fill:#ffffff;fill-opacity:1;stroke:none;stroke-width:1.16524;stroke-linecap:round;stroke-linejoin:round;stroke-miterlimit:1;stroke-opacity:1"
       x="214.54088"
       y="93.65609"
       id="text1"
       inkscape:label="copyright-symbol"
       sodipodi:insensitive="true"><tspan
         sodipodi:role="line"
         id="tspan1"
         style="font-size:5.75502px;fill:#ffffff;fill-opacity:1;stroke:none;stroke-width:1.16524;stroke-opacity:1"
         x="214.54088"
         y="93.65609">©</tspan></text></g><metadata
     id="metadata1"><rdf:RDF><cc:Work
         rdf:about=""><dc:creator><cc:Agent><dc:title>William C. Canin</dc:title></cc:Agent></dc:creator><dc:rights><cc:Agent><dc:title>© 2026 William C. Canin. Unauthorized use prohibited.</dc:title></cc:Agent></dc:rights><dc:publisher><cc:Agent><dc:title>William C. Canin</dc:title></cc:Agent></dc:publisher><dc:title>Tildr</dc:title><dc:source>Baloo 2</dc:source></cc:Work></rdf:RDF></metadata></svg>
