<?xml version="1.0" encoding="UTF-8" standalone="no"?>
<!--
Created with Inkscape (http://www.inkscape.org/)
  © 2026 William C. Canin
  This artwork is protected by copyright.
  Unauthorized use, copying, or modification is prohibited.
-->

<svg
   width="270mm"
   height="270mm"
   viewBox="0 0 270 270"
   version="1.1"
   id="svg1"
   xml:space="preserve"
   inkscape:version="1.4.3 (0d15f75042, 2025-12-25)"
   sodipodi:docname="tildr-borderless.svg"
   xmlns:inkscape="http://www.inkscape.org/namespaces/inkscape"
   xmlns:sodipodi="http://sodipodi.sourceforge.net/DTD/sodipodi-0.dtd"
   xmlns:xlink="http://www.w3.org/1999/xlink"
   xmlns="http://www.w3.org/2000/svg"
   xmlns:svg="http://www.w3.org/2000/svg"
   xmlns:rdf="http://www.w3.org/1999/02/22-rdf-syntax-ns#"
   xmlns:cc="http://creativecommons.org/ns#"
   xmlns:dc="http://purl.org/dc/elements/1.1/"><title
     id="title1">Tildr</title><sodipodi:namedview
     id="namedview1"
     pagecolor="#ffffff"
     bordercolor="#000000"
     borderopacity="0.25"
     inkscape:showpageshadow="2"
     inkscape:pageopacity="0.0"
     inkscape:pagecheckerboard="0"
     inkscape:deskcolor="#d1d1d1"
     inkscape:document-units="mm"
     inkscape:zoom="0.22627417"
     inkscape:cx="304.9398"
     inkscape:cy="371.23106"
     inkscape:window-width="1071"
     inkscape:window-height="991"
     inkscape:window-x="26"
     inkscape:window-y="23"
     inkscape:window-maximized="0"
     inkscape:current-layer="layer1" /><defs
     id="defs1"><linearGradient
       id="linearGradient23"
       inkscape:collect="always"><stop
         style="stop-color:#13a378;stop-opacity:1;"
         offset="0"
         id="stop23" /><stop
         style="stop-color:#4fba5d;stop-opacity:1;"
         offset="0.58523303"
         id="stop27" /><stop
         style="stop-color:#91d34f;stop-opacity:1;"
         offset="1"
         id="stop26" /></linearGradient><linearGradient
       id="linearGradient24"
       inkscape:collect="always"><stop
         style="stop-color:#35b56e;stop-opacity:1;"
         offset="0"
         id="stop24" /><stop
         style="stop-color:#b6ef56;stop-opacity:1;"
         offset="1"
         id="stop25" /></linearGradient><linearGradient
       inkscape:collect="always"
       xlink:href="#linearGradient24"
       id="linearGradient25"
       x1="139.93321"
       y1="179.32922"
       x2="141.03079"
       y2="15.236699"
       gradientUnits="userSpaceOnUse"
       gradientTransform="matrix(1.1975719,0,0,1.2139501,-32.03129,-17.308794)" /><linearGradient
       inkscape:collect="always"
       xlink:href="#linearGradient23"
       id="linearGradient26"
       x1="134.98523"
       y1="176.37613"
       x2="135.57895"
       y2="79.596344"
       gradientUnits="userSpaceOnUse"
       gradientTransform="matrix(1.4816514,0,0,1.4816519,-73.882538,-7.5375594)" /></defs><g
     inkscape:label="tildr"
     inkscape:groupmode="layer"
     id="layer1"
     style="fill:#1f1f1f;fill-opacity:1"><rect
       style="display:inline;opacity:1;fill:#252529;fill-opacity:1;stroke:none;stroke-width:0;stroke-linecap:round;stroke-linejoin:round;stroke-miterlimit:1"
       id="rect1"
       width="270"
       height="270"
       x="0"
       y="0"
       inkscape:label="background"
       sodipodi:insensitive="true" /><path
       d="m 135.99797,5.3786861 c -4.4164,-0.1777921 -9.12343,1.0708586 -14.40341,4.2770977 0,0 -62.836339,38.1572592 -94.254615,57.2360142 -7.475038,4.539199 -12.721957,11.761064 -12.721957,22.33031 V 193.55775 c 6.990242,29.48123 103.292822,80.09316 103.305992,68.72707 l 0.16051,-138.67331 c -6.59256,-2.91765 -12.78258,-5.30485 -18.609822,-6.05181 -9.284364,-1.19012 -17.64766,1.65649 -25.640109,13.23281 -0.951012,1.37746 -2.243737,2.43495 -3.737907,2.89258 -1.494191,0.45766 -3.184928,0.28984 -4.811035,-0.72578 -4.389364,-2.74146 -8.737921,-5.6975 -12.527646,-9.30139 -1.825942,-1.73639 -2.383596,-3.86687 -2.133207,-5.97966 0.250388,-2.11276 1.258467,-4.22286 2.502667,-6.1453 10.738677,-16.592007 23.440773,-24.326413 37.632419,-25.798782 1.773929,-0.184044 3.570036,-0.271332 5.388442,-0.266619 12.728678,0.03299 26.530818,4.556334 41.185928,11.692115 15.45959,7.527496 26.34642,8.784596 34.4929,6.598846 8.14645,-2.18576 13.6305,-7.827759 18.249,-14.328152 1.26059,-1.774211 2.69209,-2.402875 4.00218,-2.342424 1.31013,0.06043 2.44693,0.736732 3.33072,1.316131 4.54897,2.982205 8.61995,6.613548 12.7337,10.098068 1.84044,1.558877 2.79089,3.461757 2.91426,5.408197 0.12349,1.94644 -0.56918,3.91288 -1.89929,5.63589 -7.62358,9.87566 -16.27871,19.93775 -28.85136,24.94501 -8.57807,3.41634 -18.95472,4.45579 -32.00202,1.51057 l 1.47165,125.88216 c 0.15986,13.67441 92.72939,-35.021 101.1004,-57.614 1.76123,-5.18436 2.30918,-11.39936 2.24521,-18.3706 l -0.88868,-96.895574 c -0.0452,-4.928773 -0.71157,-9.144132 -2.87462,-13.062183 -2.16303,-3.918035 -5.84201,-7.566995 -12.00408,-11.302524 L 148.65679,9.6557838 C 144.54153,7.1610331 140.41492,5.5567405 135.99857,5.3786861 Z"
       style="baseline-shift:baseline;display:none;overflow:visible;fill:url(#linearGradient25);fill-opacity:1;stroke:none;stroke-width:4.82292;stroke-linecap:round;stroke-linejoin:round;stroke-miterlimit:1;stroke-dasharray:none;stroke-opacity:1;enable-background:accumulate;stop-color:#000000"
       id="path24"
       inkscape:label="logo-curve"
       sodipodi:nodetypes="scsssscsssssssscsssssscsscssccsccss"
       sodipodi:insensitive="true" /><path
       style="display:inline;opacity:1;fill:url(#linearGradient26);fill-opacity:1;stroke:none;stroke-width:5.92661;stroke-linecap:round;stroke-linejoin:round;stroke-miterlimit:1;stroke-dasharray:none;stroke-opacity:1"
       d="m 114.64594,260.30415 c 3.25501,1.85885 4.96553,0.48931 4.95914,-2.72268 l -0.27503,-138.32943 c -15.43579,-11.07859 -28.259455,-7.15815 -40.64563,7.20489 -2.386838,2.76777 -5.843559,3.05914 -8.459735,1.2641 l -13.321651,-9.14041 c -2.909266,-1.99613 -3.268082,-6.01047 -0.194478,-10.11279 54.765094,-73.094669 97.837544,24.93905 135.453014,-23.628926 2.33406,-3.01365 5.25112,-2.566886 7.00116,-1.166859 l 14.58576,11.668604 c 2.75882,2.207076 2.06208,5.795261 0.38894,8.945931 -10.78488,20.30882 -28.64018,32.37157 -62.23254,26.8378 l 0.58343,126.40989 c 0.0204,4.38431 3.50539,4.21141 6.02879,2.72268 l 80.03623,-47.21908 c 8.52846,-5.03156 14.68021,-12.9242 14.57666,-30.52855 l -0.55007,-93.510758 c -0.0572,-9.732113 -4.08272,-18.925364 -21.72748,-29.153361 L 149.71813,12.814787 C 140.46709,7.4523201 130.02949,7.0258281 119.46466,13.36485 L 35.024406,64.02989 C 25.802175,69.563324 18.604923,77.933868 18.688361,91.645595 l 0.583434,95.877035 c 0.07179,11.79738 6.154179,21.1624 17.113948,27.42122 25.995051,14.84507 78.260197,45.3603 78.260197,45.3603 z"
       id="path1"
       sodipodi:nodetypes="sscsssssssscsssssssssssss"
       inkscape:label="logo-straight-line"
       sodipodi:insensitive="true" /><text
       xml:space="preserve"
       style="font-size:11.901px;font-family:Ubuntu;-inkscape-font-specification:Ubuntu;writing-mode:lr-tb;direction:ltr;display:inline;opacity:1;fill:#ffffff;fill-opacity:1;stroke:none;stroke-width:2.40962;stroke-linecap:round;stroke-linejoin:round;stroke-miterlimit:1;stroke-opacity:1"
       x="213.94902"
       y="92.800095"
       id="text1"
       inkscape:label="copyright-symbol"><tspan
         sodipodi:role="line"
         id="tspan1"
         style="font-size:11.901px;fill:#ffffff;fill-opacity:1;stroke:none;stroke-width:2.40962;stroke-opacity:1"
         x="213.94902"
         y="92.800095">©</tspan></text></g><metadata
     id="metadata1"><rdf:RDF><cc:Work
         rdf:about=""><dc:creator><cc:Agent><dc:title>William C. Canin</dc:title></cc:Agent></dc:creator><dc:rights><cc:Agent><dc:title>© 2026 William C. Canin. Unauthorized use prohibited.</dc:title></cc:Agent></dc:rights><dc:publisher><cc:Agent><dc:title>William C. Canin</dc:title></cc:Agent></dc:publisher><dc:title>Tildr</dc:title><dc:source>Baloo 2</dc:source></cc:Work></rdf:RDF></metadata></svg>
