<?xml version="1.0" encoding="UTF-8" standalone="no"?>
<!--
Created with Inkscape (http://www.inkscape.org/)
  © 2026 William C. Canin
  This artwork is protected by copyright.
  Unauthorized use, copying, or modification is prohibited.
-->

<svg
   width="270mm"
   height="270mm"
   viewBox="0 0 270 270"
   version="1.1"
   id="svg1"
   xml:space="preserve"
   inkscape:version="1.4.3 (0d15f75042, 2025-12-25)"
   sodipodi:docname="tildr-variation-4.svg"
   xmlns:inkscape="http://www.inkscape.org/namespaces/inkscape"
   xmlns:sodipodi="http://sodipodi.sourceforge.net/DTD/sodipodi-0.dtd"
   xmlns:xlink="http://www.w3.org/1999/xlink"
   xmlns="http://www.w3.org/2000/svg"
   xmlns:svg="http://www.w3.org/2000/svg"
   xmlns:rdf="http://www.w3.org/1999/02/22-rdf-syntax-ns#"
   xmlns:cc="http://creativecommons.org/ns#"
   xmlns:dc="http://purl.org/dc/elements/1.1/"><title
     id="title1">Tildr</title><sodipodi:namedview
     id="namedview1"
     pagecolor="#ffffff"
     bordercolor="#000000"
     borderopacity="0.25"
     inkscape:showpageshadow="2"
     inkscape:pageopacity="0.0"
     inkscape:pagecheckerboard="0"
     inkscape:deskcolor="#d1d1d1"
     inkscape:document-units="mm"
     inkscape:zoom="0.22627417"
     inkscape:cx="455.19999"
     inkscape:cy="517.07183"
     inkscape:window-width="1071"
     inkscape:window-height="991"
     inkscape:window-x="26"
     inkscape:window-y="23"
     inkscape:window-maximized="0"
     inkscape:current-layer="layer1" /><defs
     id="defs1"><linearGradient
       id="linearGradient23"
       inkscape:collect="always"><stop
         style="stop-color:#13a378;stop-opacity:1;"
         offset="0"
         id="stop23" /><stop
         style="stop-color:#4fba5d;stop-opacity:1;"
         offset="0.58523303"
         id="stop27" /><stop
         style="stop-color:#91d34f;stop-opacity:1;"
         offset="1"
         id="stop26" /></linearGradient><linearGradient
       id="linearGradient24"
       inkscape:collect="always"><stop
         style="stop-color:#35b56e;stop-opacity:1;"
         offset="0"
         id="stop24" /><stop
         style="stop-color:#b6ef56;stop-opacity:1;"
         offset="1"
         id="stop25" /></linearGradient><linearGradient
       inkscape:collect="always"
       xlink:href="#linearGradient24"
       id="linearGradient25"
       x1="139.93321"
       y1="179.32922"
       x2="141.03079"
       y2="15.236699"
       gradientUnits="userSpaceOnUse"
       gradientTransform="matrix(1.195337,0,0,1.2116847,-31.742303,-17.064581)" /><linearGradient
       inkscape:collect="always"
       xlink:href="#linearGradient23"
       id="linearGradient26"
       x1="134.98523"
       y1="176.37613"
       x2="135.57895"
       y2="79.596344"
       gradientUnits="userSpaceOnUse"
       gradientTransform="matrix(1.4872897,0,0,1.4872862,-75.19634,-7.7435593)" /></defs><g
     inkscape:label="tildr"
     inkscape:groupmode="layer"
     id="layer1"
     style="fill:#1f1f1f;fill-opacity:1"><rect
       style="display:none;opacity:1;fill:#252529;fill-opacity:1;stroke:none;stroke-width:0;stroke-linecap:round;stroke-linejoin:round;stroke-miterlimit:1"
       id="rect1"
       width="270"
       height="270"
       x="0"
       y="0"
       inkscape:label="background" /><g
       inkscape:groupmode="layer"
       id="layer3"
       inkscape:label="text"
       style="display:inline" /><path
       d="m 135.9734,5.5805618 c -4.40816,-0.177461 -9.10641,1.0688597 -14.37654,4.269116 0,0 -62.719075,38.0860542 -94.07872,57.1292042 -7.461089,4.53073 -12.698217,11.739117 -12.698217,22.288639 V 193.40846 c 6.977197,29.42621 103.100067,79.94369 103.113217,68.59882 l 0.16021,-138.41453 c -6.58026,-2.91221 -12.75873,-5.29495 -18.575093,-6.04052 -9.267046,-1.1879 -17.614732,1.65341 -25.592271,13.20812 -0.949234,1.37489 -2.239541,2.43041 -3.730929,2.88719 -1.491408,0.45679 -3.17898,0.28929 -4.802052,-0.72443 -4.381178,-2.73635 -8.721619,-5.68687 -12.504273,-9.28403 -1.822535,-1.73315 -2.379148,-3.85967 -2.129226,-5.96851 0.249921,-2.10881 1.256118,-4.21499 2.497996,-6.13382 10.718634,-16.561055 23.397029,-24.281028 37.562192,-25.750649 1.770625,-0.183701 3.563378,-0.270826 5.378382,-0.266122 12.704924,0.03293 26.481304,4.547832 41.109074,11.670294 15.43074,7.513447 26.29725,8.768207 34.42853,6.586527 8.13125,-2.18168 13.60506,-7.813144 18.21495,-14.301406 1.25824,-1.770901 2.68705,-2.398392 3.99471,-2.338054 1.30769,0.06032 2.44236,0.735358 3.3245,1.313675 4.5405,2.97664 8.60387,6.601207 12.70995,10.079221 1.837,1.555974 2.78568,3.455294 2.90882,5.398094 0.12326,1.94282 -0.56813,3.9056 -1.89575,5.62538 -7.60936,9.85724 -16.24833,19.90056 -28.79753,24.89848 -8.56206,3.40995 -18.91934,4.44747 -31.94229,1.50773 l 1.46889,125.64726 c 0.15957,13.64888 92.55636,-34.95565 100.91174,-57.50649 1.75795,-5.17469 2.30488,-11.37809 2.24102,-18.33632 l -0.88701,-96.714752 c -0.0451,-4.919576 -0.71024,-9.127069 -2.86926,-13.037807 -2.159,-3.910724 -5.83111,-7.552875 -11.98167,-11.281434 L 148.60859,9.8496778 c -4.10758,-2.4900957 -8.22649,-4.0913937 -12.6346,-4.269116 z"
       style="baseline-shift:baseline;display:none;overflow:visible;fill:url(#linearGradient25);fill-opacity:1;stroke:#ffffff;stroke-width:4.81393;stroke-linecap:round;stroke-linejoin:round;stroke-miterlimit:1;stroke-dasharray:none;stroke-opacity:1;enable-background:accumulate;stop-color:#000000"
       id="path24"
       inkscape:label="logo-curve"
       sodipodi:nodetypes="scsssscsssssssscsssssscsscssccsccss"
       sodipodi:insensitive="true" /><path
       style="display:inline;opacity:1;fill:url(#linearGradient26);fill-opacity:1;stroke:none;stroke-width:5.94915;stroke-linecap:round;stroke-linejoin:round;stroke-miterlimit:1;stroke-dasharray:none;stroke-opacity:1"
       d="m 114.04957,261.11666 c 3.2674,1.86592 4.98443,0.49117 4.97801,-2.73305 L 118.7515,119.52818 c -15.49452,-11.12072 -28.366982,-7.18537 -40.800297,7.23229 -2.395921,2.77829 -5.865798,3.07077 -8.491928,1.26889 L 56.08693,118.8542 c -2.920338,-2.00374 -3.28052,-6.03331 -0.195219,-10.15123 54.973509,-73.372637 98.209849,25.03387 135.968469,-23.718796 2.34294,-3.025114 5.2711,-2.576643 7.02781,-1.171291 l 14.64125,11.712966 c 2.76933,2.21547 2.06992,5.817301 0.39042,8.979961 -10.82592,20.38604 -28.74916,32.49466 -62.46936,26.93985 l 0.58565,126.89057 c 0.0205,4.40098 3.51874,4.22745 6.05174,2.73304 l 80.34078,-47.39865 c 8.56093,-5.05068 14.73609,-12.97331 14.63214,-30.64462 L 252.50845,89.15965 C 252.45095,79.390533 248.4102,70.162325 230.69829,59.895433 L 149.25521,12.686178 c -9.28623,-5.3828569 -19.76355,-5.8109709 -30.36859,0.552155 l -84.761576,50.8577 c -9.257325,5.554475 -16.481966,13.956849 -16.39821,27.720718 l 0.585653,96.241619 c 0.07205,11.84225 6.1776,21.24288 17.179075,27.52549 26.093974,14.90153 78.558008,45.5328 78.558008,45.5328 z"
       id="path1"
       sodipodi:nodetypes="sscsssssssscsssssssssssss"
       inkscape:label="logo-straight-line"
       sodipodi:insensitive="true" /><text
       xml:space="preserve"
       style="font-size:5.75502px;font-family:Ubuntu;-inkscape-font-specification:Ubuntu;writing-mode:lr-tb;direction:ltr;display:inline;opacity:1;fill:#ffffff;fill-opacity:1;stroke:none;stroke-width:1.16524;stroke-linecap:round;stroke-linejoin:round;stroke-miterlimit:1;stroke-opacity:1"
       x="215.48677"
       y="93.161324"
       id="text1"
       inkscape:label="copyright-symbol"
       sodipodi:insensitive="true"><tspan
         sodipodi:role="line"
         id="tspan1"
         style="font-size:5.75502px;fill:#ffffff;fill-opacity:1;stroke:none;stroke-width:1.16524;stroke-opacity:1"
         x="0"
         y="0">©</tspan></text></g><metadata
     id="metadata1"><rdf:RDF><cc:Work
         rdf:about=""><dc:creator><cc:Agent><dc:title>William C. Canin</dc:title></cc:Agent></dc:creator><dc:rights><cc:Agent><dc:title>© 2026 William C. Canin. Unauthorized use prohibited.</dc:title></cc:Agent></dc:rights><dc:publisher><cc:Agent><dc:title>William C. Canin</dc:title></cc:Agent></dc:publisher><dc:title>Tildr</dc:title><dc:source>Baloo 2</dc:source></cc:Work></rdf:RDF></metadata></svg>
