<?xml version="1.0" encoding="UTF-8" standalone="no"?>
<!--
Created with Inkscape (http://www.inkscape.org/)
  © 2026 William C. Canin
  This artwork is protected by copyright.
  Unauthorized use, copying, or modification is prohibited.
-->

<svg
   width="270mm"
   height="270mm"
   viewBox="0 0 270 270"
   version="1.1"
   id="svg1"
   xml:space="preserve"
   inkscape:version="1.4.4 (dcaf3e7d9e, 2026-05-05)"
   sodipodi:docname="tildr-variation-1.svg"
   xmlns:inkscape="http://www.inkscape.org/namespaces/inkscape"
   xmlns:sodipodi="http://sodipodi.sourceforge.net/DTD/sodipodi-0.dtd"
   xmlns:xlink="http://www.w3.org/1999/xlink"
   xmlns="http://www.w3.org/2000/svg"
   xmlns:svg="http://www.w3.org/2000/svg"
   xmlns:rdf="http://www.w3.org/1999/02/22-rdf-syntax-ns#"
   xmlns:cc="http://creativecommons.org/ns#"
   xmlns:dc="http://purl.org/dc/elements/1.1/"><title
     id="title1">Tildr</title><sodipodi:namedview
     id="namedview1"
     pagecolor="#ffffff"
     bordercolor="#000000"
     borderopacity="0.25"
     inkscape:showpageshadow="2"
     inkscape:pageopacity="0.0"
     inkscape:pagecheckerboard="0"
     inkscape:deskcolor="#d1d1d1"
     inkscape:document-units="mm"
     inkscape:zoom="0.32"
     inkscape:cx="-160.9375"
     inkscape:cy="259.375"
     inkscape:window-width="1880"
     inkscape:window-height="1015"
     inkscape:window-x="0"
     inkscape:window-y="0"
     inkscape:window-maximized="1"
     inkscape:current-layer="layer1" /><defs
     id="defs1"><linearGradient
       id="linearGradient23"
       inkscape:collect="always"><stop
         style="stop-color:#13a378;stop-opacity:1;"
         offset="0"
         id="stop23" /><stop
         style="stop-color:#4fba5d;stop-opacity:1;"
         offset="0.58523303"
         id="stop27" /><stop
         style="stop-color:#91d34f;stop-opacity:1;"
         offset="1"
         id="stop26" /></linearGradient><linearGradient
       id="linearGradient24"
       inkscape:collect="always"><stop
         style="stop-color:#35b56e;stop-opacity:1;"
         offset="0"
         id="stop24" /><stop
         style="stop-color:#b6ef56;stop-opacity:1;"
         offset="1"
         id="stop25" /></linearGradient><linearGradient
       inkscape:collect="always"
       xlink:href="#linearGradient24"
       id="linearGradient25"
       x1="139.93321"
       y1="179.32922"
       x2="141.03079"
       y2="15.236699"
       gradientUnits="userSpaceOnUse"
       gradientTransform="matrix(0.82432423,0,0,0.83559787,20.5498,-4.9414673)" /><linearGradient
       inkscape:collect="always"
       xlink:href="#linearGradient23"
       id="linearGradient26"
       x1="134.98523"
       y1="176.37613"
       x2="135.57895"
       y2="79.596344"
       gradientUnits="userSpaceOnUse"
       gradientTransform="matrix(1.0409141,0,0,1.0409145,-11.95212,-0.36838157)" /></defs><g
     inkscape:label="tildr"
     inkscape:groupmode="layer"
     id="layer1"
     style="fill:#1f1f1f;fill-opacity:1"><rect
       style="display:inline;opacity:1;fill:#252529;fill-opacity:1;stroke:none;stroke-width:0;stroke-linecap:round;stroke-linejoin:round;stroke-miterlimit:1"
       id="rect1"
       width="270"
       height="270"
       x="0"
       y="0"
       inkscape:label="background" /><text
       xml:space="preserve"
       style="font-size:5.75502px;font-family:Ubuntu;-inkscape-font-specification:Ubuntu;writing-mode:lr-tb;direction:ltr;opacity:1;fill:#ffffff;fill-opacity:1;stroke:none;stroke-width:1.16524;stroke-linecap:round;stroke-linejoin:round;stroke-miterlimit:1;stroke-opacity:1"
       x="212.79857"
       y="218.04886"
       id="text1"
       inkscape:label="copyright-symbol"><tspan
         sodipodi:role="line"
         id="tspan1"
         style="font-size:5.75502px;fill:#ffffff;fill-opacity:1;stroke:none;stroke-width:1.16524;stroke-opacity:1"
         x="212.79857"
         y="218.04886">©</tspan></text><g
       inkscape:groupmode="layer"
       id="layer3"
       inkscape:label="text"
       style="display:inline"><path
         style="font-weight:bold;font-size:120px;font-family:'Baloo 2';-inkscape-font-specification:'Baloo 2 Bold';dominant-baseline:middle;text-anchor:middle;display:inline;fill:#ffffff;fill-opacity:1;stroke-width:0.669701"
         d="m 66.413868,218.99878 -0.08078,-9.75335 h 24.962598 c 0.32313,0.47969 0.61934,1.14587 0.88863,1.99863 0.26928,0.85274 0.40393,1.75881 0.40393,2.71815 0,1.7055 -0.40393,2.98462 -1.21179,3.83738 -0.75398,0.79946 -1.804181,1.19919 -3.150616,1.19919 z m 11.390696,-9.75335 0.08078,9.75335 H 52.92275 c -0.376988,-0.47968 -0.70013,-1.1459 -0.969415,-1.99863 -0.215427,-0.85277 -0.323131,-1.75881 -0.323131,-2.71815 0,-1.7588 0.376999,-3.03794 1.130996,-3.83739 0.807844,-0.79945 1.858055,-1.19918 3.150612,-1.19918 z m -12.036969,7.59482 h 12.360111 v 40.7722 c -0.53857,0.15989 -1.346414,0.29312 -2.423553,0.39973 -1.077129,0.15989 -2.181197,0.23997 -3.312183,0.23997 -2.423553,0 -4.146965,-0.4264 -5.170247,-1.27913 -0.969415,-0.85277 -1.454128,-2.34509 -1.454128,-4.47695 z m 32.394911,-8.55417 c 0,-1.8121 0.61934,-3.33106 1.858054,-4.55689 1.29256,-1.22584 2.90827,-1.83874 4.8471,-1.83874 1.9927,0 3.6084,0.6129 4.8471,1.83874 1.23871,1.22583 1.85804,2.74479 1.85804,4.55689 0,1.75881 -0.61933,3.27778 -1.85804,4.55689 -1.2387,1.27913 -2.8544,1.9187 -4.8471,1.9187 -1.93883,0 -3.55454,-0.63957 -4.8471,-1.9187 -1.238714,-1.27911 -1.858054,-2.79808 -1.858054,-4.55689 z m 0.72706,28.3007 h 11.956184 v 21.02567 c -0.48471,0.15989 -1.21177,0.29312 -2.1812,0.39973 -0.96942,0.15989 -2.01961,0.23997 -3.15061,0.23997 -2.31585,0 -4.01233,-0.39974 -5.08946,-1.19919 -1.023284,-0.79945 -1.534914,-2.23848 -1.534914,-4.31706 z m 11.956184,6.15581 H 98.889566 v -22.94436 c 0.48471,-0.15988 1.211784,-0.31978 2.181194,-0.47967 1.02329,-0.15989 2.10041,-0.2397 3.2314,-0.2397 2.31583,0 3.98539,0.39973 5.00869,1.19918 1.02327,0.74615 1.5349,2.2118 1.5349,4.397 z m 10.09806,-6.15581 12.03699,0.23973 v 20.78583 c -0.53857,0.15987 -1.29255,0.2931 -2.26198,0.39972 -0.96943,0.15988 -2.01963,0.23996 -3.15062,0.23996 -2.26198,0 -3.93152,-0.39973 -5.00867,-1.19918 -1.07714,-0.79946 -1.61572,-2.23848 -1.61572,-4.31706 z m 12.03699,6.39565 -12.03699,-0.23972 v -37.09469 c 0.53858,-0.15991 1.29256,-0.31979 2.26198,-0.47969 0.96944,-0.15987 2.01964,-0.23971 3.15063,-0.23971 2.31585,0 3.98541,0.39974 5.00867,1.1992 1.07714,0.79944 1.61571,2.26511 1.61571,4.39698 z m 34.89912,5.19646 v -24.06361 h 11.95619 v 25.58257 c 0,1.27913 -0.26929,2.3717 -0.80784,3.27776 -0.53858,0.85274 -1.4003,1.62556 -2.58513,2.31843 -1.45413,0.95934 -3.36606,1.78543 -5.73573,2.4783 -2.31586,0.74615 -5.00869,1.11924 -8.07853,1.11924 -4.47008,0 -8.34777,-0.74617 -11.63304,-2.23848 -3.23139,-1.49232 -5.73574,-3.73079 -7.51301,-6.71541 -1.72341,-3.03794 -2.58513,-6.79538 -2.58513,-11.27232 0,-4.69014 0.88864,-8.52752 2.6659,-11.51214 1.83116,-3.03795 4.28163,-5.30307 7.35145,-6.79538 3.06984,-1.49232 6.46281,-2.23847 10.17893,-2.23847 1.93883,0 3.66224,0.21327 5.17024,0.63956 1.508,0.42638 2.74669,0.93269 3.71611,1.51897 v 9.75334 c -0.75397,-0.63956 -1.75034,-1.22583 -2.98904,-1.75879 -1.2387,-0.53298 -2.66591,-0.79946 -4.28161,-0.79946 -1.88498,0 -3.55455,0.39972 -5.00867,1.19918 -1.45413,0.79946 -2.58512,2.02528 -3.39299,3.67749 -0.80785,1.6522 -1.21177,3.75745 -1.21177,6.3157 0,3.73077 0.83478,6.47558 2.50433,8.23438 1.72342,1.7588 4.03926,2.63821 6.94753,2.63821 1.18485,0 2.23506,-0.13321 3.15061,-0.39973 0.91557,-0.31979 1.64264,-0.63956 2.1812,-0.95934 z m 11.95619,-21.74518 -11.95619,0.0798 v -20.86573 c 0.48471,-0.15991 1.21178,-0.3198 2.1812,-0.47968 0.96943,-0.15989 2.01962,-0.23972 3.15062,-0.23972 2.36969,0 4.06618,0.39973 5.08946,1.19919 1.02325,0.79945 1.53491,2.26511 1.53491,4.397 z m 20.84073,3.19772 v 9.9932 h -11.9562 v -11.4322 c 0,-1.49232 0.32301,-3.09291 1.02316,-4.10555 0.75398,-1.06593 1.66569,-1.931 3.09687,-2.44998 3.57358,-1.29585 9.05799,-2.47369 14.29896,-3.43767 5.40091,-0.99338 8.24009,1.81208 8.24009,5.4363 0,0.85274 -0.1346,1.65219 -0.40394,2.39836 -0.2155,0.74615 -0.4847,1.38572 -0.80784,1.9187 -0.53854,-0.10656 -1.21177,-0.18659 -2.01964,-0.23971 -0.75398,-0.10656 -1.58875,-0.15989 -2.50432,-0.15989 -1.61571,0 -3.2314,0.18658 -4.84712,0.55961 -1.61569,0.37306 -2.98904,0.87941 -4.12002,1.51897 z m -11.9562,6.95526 11.9562,0.23973 v 20.78583 c -0.53856,0.15987 -1.29257,0.2931 -2.26199,0.39972 -0.96943,0.15988 -2.01963,0.23996 -3.15062,0.23996 -2.26197,0 -3.93151,-0.39973 -5.00867,-1.19918 -1.02326,-0.79946 -1.53492,-2.23848 -1.53492,-4.31706 z"
         id="text1-5-9"
         aria-label="Tildr"
         sodipodi:nodetypes="cccsscscccccscscccccscscscssssscsccccscscccccscscccccsssccccsscsccccscccsccscsssccssssscscccccssssccccscssscccsscccccscscc"
         inkscape:label="font-baloo-2-in-path" /></g><path
       d="m 136.20932,10.674998 c -3.03994,-0.12238 -6.27993,0.737103 -9.9143,2.944053 0,0 -43.25211,26.264772 -64.87824,39.397243 -5.14529,3.124466 -8.7569,8.095489 -8.7569,15.370614 v 71.817312 c 4.81159,20.2928 71.09951,55.13049 71.10858,47.30688 l 0.11048,-95.452948 c -4.53785,-2.008305 -8.79863,-3.651484 -12.80969,-4.16564 -6.39071,-0.819199 -12.14741,1.140215 -17.64885,9.108534 -0.65461,0.948144 -1.54443,1.676049 -2.57291,1.991054 -1.0285,0.315014 -2.19228,0.199504 -3.31158,-0.499577 -3.02133,-1.887032 -6.01457,-3.921757 -8.62315,-6.402426 -1.25685,-1.195203 -1.6407,-2.661682 -1.46835,-4.115976 0.17235,-1.454275 0.86624,-2.906726 1.72266,-4.229987 7.39175,-11.420775 16.13498,-16.744596 25.90351,-17.758071 1.22105,-0.126683 2.45736,-0.186766 3.70902,-0.183522 8.76153,0.02271 18.26195,3.13626 28.3495,8.048029 10.64129,5.181394 18.13502,6.046698 23.74248,4.542178 5.60745,-1.504522 9.38228,-5.388075 12.56133,-9.862488 0.8677,-1.221242 1.85304,-1.65397 2.75482,-1.61236 0.9018,0.0416 1.68429,0.507115 2.29263,0.905932 3.1312,2.05274 5.93337,4.552301 8.76499,6.950799 1.26682,1.073022 1.92105,2.382829 2.00597,3.722615 0.085,1.339796 -0.39179,2.69336 -1.30734,3.879355 -5.24754,6.797713 -11.20512,13.723751 -19.85925,17.170397 -5.90454,2.351562 -13.04709,3.067052 -22.02793,1.039762 l 1.01297,86.64842 c 0.11004,9.4125 63.82839,-24.10599 69.5904,-39.65742 1.21231,-3.56855 1.58948,-7.84652 1.54545,-12.64503 l -0.6117,-66.696092 c -0.0311,-3.392621 -0.4898,-6.294177 -1.97869,-8.991087 -1.48888,-2.6969 -4.02123,-5.208587 -8.26276,-7.779863 L 144.92276,13.619051 c -2.83266,-1.717211 -5.67313,-2.821493 -8.71303,-2.944053 z"
       style="baseline-shift:baseline;display:none;overflow:visible;fill:url(#linearGradient25);fill-opacity:1;stroke:#ffffff;stroke-width:3.31976;stroke-linecap:round;stroke-linejoin:round;stroke-miterlimit:1;stroke-dasharray:none;stroke-opacity:1;enable-background:accumulate;stop-color:#000000"
       id="path24"
       inkscape:label="logo-curve"
       sodipodi:nodetypes="scsssscsssssssscsssssscsscssccsccss" /><path
       style="display:inline;opacity:1;fill:url(#linearGradient26);fill-opacity:1;stroke:#ffffff;stroke-width:4.16366;stroke-linecap:round;stroke-linejoin:round;stroke-miterlimit:1;stroke-dasharray:none;stroke-opacity:1"
       d="m 120.496,187.80018 c 2.28677,1.30591 3.48847,0.34376 3.48398,-1.91278 l -0.19322,-97.181464 c -10.8442,-7.783116 -19.85329,-5.028864 -28.555032,5.061697 -1.67684,1.944464 -4.105315,2.149154 -5.94327,0.888075 l -9.358947,-6.42147 c -2.043866,-1.402361 -2.295947,-4.222574 -0.136628,-7.104604 38.474477,-51.351671 68.734437,17.52059 95.160677,-16.600184 1.63976,-2.1172 3.6891,-1.803331 4.91857,-0.819762 l 10.24702,8.19762 c 1.93818,1.550551 1.44869,4.071384 0.27325,6.284845 -7.57677,14.267689 -20.12077,22.742207 -43.72063,18.854528 l 0.40989,88.807559 c 0.0143,3.08013 2.46266,2.95867 4.23544,1.91278 l 56.22836,-33.17313 c 5.99156,-3.53485 10.31339,-9.07971 10.24064,-21.44741 L 217.39966,67.451761 C 217.35946,60.614596 214.5314,54.156003 202.13531,46.970463 L 145.13549,13.929883 C 138.6363,10.162555 131.30351,9.8629288 123.88133,14.316322 L 64.558977,49.910359 C 58.080024,53.797798 53.023692,59.67841 53.082311,69.311398 l 0.409883,67.357112 c 0.05043,8.28809 4.323535,14.86736 12.023172,19.2644 18.262471,10.42921 54.980634,31.86727 54.980634,31.86727 z"
       id="path1"
       sodipodi:nodetypes="sscsssssssscsssssssssssss"
       inkscape:label="logo-straight-line"
       sodipodi:insensitive="true" /></g><metadata
     id="metadata1"><rdf:RDF><cc:Work
         rdf:about=""><dc:creator><cc:Agent><dc:title>William C. Canin</dc:title></cc:Agent></dc:creator><dc:rights><cc:Agent><dc:title>© 2026 William C. Canin. Unauthorized use prohibited.</dc:title></cc:Agent></dc:rights><dc:publisher><cc:Agent><dc:title>William C. Canin</dc:title></cc:Agent></dc:publisher><dc:title>Tildr</dc:title><dc:source>Baloo 2</dc:source></cc:Work></rdf:RDF></metadata></svg>
