<?xml version="1.0" encoding="UTF-8" standalone="no"?>
<!--
Created with Inkscape (http://www.inkscape.org/)
  © 2026 William C. Canin
  This artwork is protected by copyright.
  Unauthorized use, copying, or modification is prohibited.
-->

<svg
   width="270mm"
   height="270mm"
   viewBox="0 0 270 270"
   version="1.1"
   id="svg1"
   xml:space="preserve"
   inkscape:version="1.4.3 (0d15f75042, 2025-12-25)"
   sodipodi:docname="tildr-variation-1.svg"
   xmlns:inkscape="http://www.inkscape.org/namespaces/inkscape"
   xmlns:sodipodi="http://sodipodi.sourceforge.net/DTD/sodipodi-0.dtd"
   xmlns:xlink="http://www.w3.org/1999/xlink"
   xmlns="http://www.w3.org/2000/svg"
   xmlns:svg="http://www.w3.org/2000/svg"
   xmlns:rdf="http://www.w3.org/1999/02/22-rdf-syntax-ns#"
   xmlns:cc="http://creativecommons.org/ns#"
   xmlns:dc="http://purl.org/dc/elements/1.1/"><title
     id="title1">Tildr</title><sodipodi:namedview
     id="namedview1"
     pagecolor="#ffffff"
     bordercolor="#000000"
     borderopacity="0.25"
     inkscape:showpageshadow="2"
     inkscape:pageopacity="0.0"
     inkscape:pagecheckerboard="0"
     inkscape:deskcolor="#d1d1d1"
     inkscape:document-units="mm"
     inkscape:zoom="0.22627417"
     inkscape:cx="212.13203"
     inkscape:cy="1042.9825"
     inkscape:window-width="1071"
     inkscape:window-height="991"
     inkscape:window-x="26"
     inkscape:window-y="23"
     inkscape:window-maximized="0"
     inkscape:current-layer="layer1" /><defs
     id="defs1"><linearGradient
       id="linearGradient23"
       inkscape:collect="always"><stop
         style="stop-color:#13a378;stop-opacity:1;"
         offset="0"
         id="stop23" /><stop
         style="stop-color:#4fba5d;stop-opacity:1;"
         offset="0.58523303"
         id="stop27" /><stop
         style="stop-color:#91d34f;stop-opacity:1;"
         offset="1"
         id="stop26" /></linearGradient><linearGradient
       id="linearGradient24"
       inkscape:collect="always"><stop
         style="stop-color:#35b56e;stop-opacity:1;"
         offset="0"
         id="stop24" /><stop
         style="stop-color:#b6ef56;stop-opacity:1;"
         offset="1"
         id="stop25" /></linearGradient><linearGradient
       inkscape:collect="always"
       xlink:href="#linearGradient24"
       id="linearGradient25"
       x1="139.93321"
       y1="179.32922"
       x2="141.03079"
       y2="15.236699"
       gradientUnits="userSpaceOnUse"
       gradientTransform="matrix(0.88779761,0,0,0.89993932,18.205118,-6.0152756)" /><linearGradient
       inkscape:collect="always"
       xlink:href="#linearGradient23"
       id="linearGradient26"
       x1="134.98523"
       y1="176.37613"
       x2="135.57895"
       y2="79.596344"
       gradientUnits="userSpaceOnUse"
       gradientTransform="matrix(1.1210666,0,0,1.1210624,-22.338799,27.151833)" /></defs><g
     inkscape:label="tildr"
     inkscape:groupmode="layer"
     id="layer1"
     style="fill:#1f1f1f;fill-opacity:1"><rect
       style="display:inline;opacity:1;fill:#252529;fill-opacity:1;stroke:none;stroke-width:0;stroke-linecap:round;stroke-linejoin:round;stroke-miterlimit:1"
       id="rect1"
       width="270"
       height="270"
       x="0"
       y="0"
       inkscape:label="background"
       ry="38.860676"
       sodipodi:insensitive="true" /><path
       d="m 142.77048,10.803666 c -3.27401,-0.131804 -6.76349,0.79386 -10.6777,3.170746 0,0 -46.582549,28.287174 -69.873902,42.430852 -5.54148,3.365052 -9.431186,8.718846 -9.431186,16.554159 v 77.347287 c 5.182085,21.85535 76.574208,59.37556 76.583978,50.94953 l 0.11899,-102.802874 c -4.88727,-2.162946 -9.47613,-3.93265 -13.79605,-4.486397 -6.88279,-0.882277 -13.08276,1.228012 -19.007817,9.809901 -0.705015,1.02115 -1.663352,1.8051 -2.771025,2.14436 -1.107695,0.33927 -2.361087,0.21487 -3.566574,-0.53804 -3.253974,-2.03234 -6.477695,-4.22374 -9.287137,-6.895419 -1.353628,-1.287235 -1.767034,-2.866633 -1.581413,-4.432909 0.185621,-1.566255 0.932941,-3.130545 1.855305,-4.555698 7.960919,-12.300181 17.377382,-18.033939 27.898091,-19.125452 1.31507,-0.136438 2.64658,-0.201147 3.99462,-0.197653 9.43617,0.02446 19.66813,3.377754 30.53243,8.667731 11.46067,5.580364 19.53142,6.512297 25.57066,4.891928 6.03923,-1.620371 10.10472,-5.802959 13.52856,-10.621904 0.93451,-1.315279 1.99572,-1.781327 2.96694,-1.736513 0.97124,0.0448 1.81398,0.546163 2.46917,0.975689 3.3723,2.210802 6.39024,4.902831 9.43989,7.486015 1.36437,1.155645 2.06898,2.566308 2.16044,4.009258 0.0915,1.442961 -0.42196,2.90075 -1.40801,4.178067 -5.6516,7.321141 -12.06792,14.78049 -21.38842,18.49253 -6.3592,2.53263 -14.05173,3.30321 -23.7241,1.11982 l 1.09097,93.3204 c 0.11852,10.13726 68.74321,-25.96217 74.9489,-42.71107 1.30566,-3.84333 1.71187,-8.4507 1.66445,-13.6187 l -0.6588,-71.831727 c -0.0335,-3.653855 -0.52751,-6.778832 -2.13105,-9.683406 -1.60352,-2.904563 -4.33087,-5.609651 -8.899,-8.378916 L 152.15486,13.974412 c -3.05077,-1.849437 -6.10996,-3.038749 -9.38394,-3.170746 z"
       style="baseline-shift:baseline;display:none;overflow:visible;fill:url(#linearGradient25);fill-opacity:1;stroke:#ffffff;stroke-width:3.57538;stroke-linecap:round;stroke-linejoin:round;stroke-miterlimit:1;stroke-dasharray:none;stroke-opacity:1;enable-background:accumulate;stop-color:#000000"
       id="path24"
       inkscape:label="logo-curve"
       sodipodi:nodetypes="scsssscsssssssscsssssscsscssccsccss"
       sodipodi:insensitive="true" /><path
       style="display:inline;opacity:1;fill:url(#linearGradient26);fill-opacity:1;stroke:#ffffff;stroke-width:4.48426;stroke-linecap:round;stroke-linejoin:round;stroke-miterlimit:1;stroke-dasharray:none;stroke-opacity:1"
       d="m 120.3081,229.80894 c 2.46287,1.40646 3.7571,0.37024 3.75226,-2.06006 l -0.20811,-104.66422 c -11.67921,-8.38239 -21.38203,-5.41608 -30.753826,5.45144 -1.805958,2.09419 -4.421423,2.31464 -6.40091,0.95646 l -10.079605,-6.91592 c -2.201247,-1.51033 -2.47274,-4.54769 -0.147147,-7.65163 41.437088,-55.305635 74.027118,18.86962 102.488248,-17.878364 1.76602,-2.280219 3.97317,-1.942184 5.29731,-0.882881 l 11.03606,8.828815 c 2.08744,1.66994 1.56025,4.38487 0.29429,6.76876 -8.16019,15.36628 -21.67011,24.49331 -47.08721,20.30629 l 0.44145,95.64554 c 0.0155,3.31728 2.6523,3.18647 4.56158,2.06005 l 60.55806,-35.72738 c 6.45292,-3.80703 11.10754,-9.77882 11.0292,-23.09881 l -0.4162,-70.75306 c -0.0432,-7.363612 -3.08913,-14.319502 -16.43974,-22.058312 L 146.84489,42.551031 c -6.99965,-4.057404 -14.89707,-4.380101 -22.89078,0.416194 L 60.063812,81.301919 C 53.085967,85.488683 47.640287,91.822087 47.70342,102.19679 l 0.441444,72.54346 c 0.05431,8.92625 4.656456,16.01211 12.948981,20.74772 19.668719,11.23224 59.214255,34.32097 59.214255,34.32097 z"
       id="path1"
       sodipodi:nodetypes="sscsssssssscsssssssssssss"
       inkscape:label="logo-straight-line" /><text
       xml:space="preserve"
       style="font-size:5.17318px;font-family:Ubuntu;-inkscape-font-specification:Ubuntu;writing-mode:lr-tb;direction:ltr;opacity:1;fill:#ffffff;fill-opacity:1;stroke:none;stroke-width:1.04743;stroke-linecap:round;stroke-linejoin:round;stroke-miterlimit:1;stroke-opacity:1"
       x="196.6107"
       y="102.40829"
       id="text1"
       inkscape:label="copyright-symbol"><tspan
         sodipodi:role="line"
         id="tspan1"
         style="font-size:5.17318px;fill:#ffffff;fill-opacity:1;stroke:none;stroke-width:1.04743;stroke-opacity:1"
         x="196.6107"
         y="102.40829">©</tspan></text></g><metadata
     id="metadata1"><rdf:RDF><cc:Work
         rdf:about=""><dc:creator><cc:Agent><dc:title>William C. Canin</dc:title></cc:Agent></dc:creator><dc:rights><cc:Agent><dc:title>© 2026 William C. Canin. Unauthorized use prohibited.</dc:title></cc:Agent></dc:rights><dc:publisher><cc:Agent><dc:title>William C. Canin</dc:title></cc:Agent></dc:publisher><dc:title>Tildr</dc:title><dc:source>Baloo 2</dc:source></cc:Work></rdf:RDF></metadata></svg>
