<?xml version="1.0" encoding="UTF-8" standalone="no"?>
<!--
Created with Inkscape (http://www.inkscape.org/)
  © 2026 William C. Canin
  This artwork is protected by copyright.
  Unauthorized use, copying, or modification is prohibited.
-->

<svg
   width="270mm"
   height="270mm"
   viewBox="0 0 270 270"
   version="1.1"
   id="svg1"
   xml:space="preserve"
   inkscape:version="1.4.3 (0d15f75042, 2025-12-25)"
   sodipodi:docname="tildr-variation-3.svg"
   xmlns:inkscape="http://www.inkscape.org/namespaces/inkscape"
   xmlns:sodipodi="http://sodipodi.sourceforge.net/DTD/sodipodi-0.dtd"
   xmlns:xlink="http://www.w3.org/1999/xlink"
   xmlns="http://www.w3.org/2000/svg"
   xmlns:svg="http://www.w3.org/2000/svg"
   xmlns:rdf="http://www.w3.org/1999/02/22-rdf-syntax-ns#"
   xmlns:cc="http://creativecommons.org/ns#"
   xmlns:dc="http://purl.org/dc/elements/1.1/"><title
     id="title1">Tildr</title><sodipodi:namedview
     id="namedview1"
     pagecolor="#ffffff"
     bordercolor="#000000"
     borderopacity="0.25"
     inkscape:showpageshadow="2"
     inkscape:pageopacity="0.0"
     inkscape:pagecheckerboard="0"
     inkscape:deskcolor="#d1d1d1"
     inkscape:document-units="mm"
     inkscape:zoom="0.22627417"
     inkscape:cx="508.233"
     inkscape:cy="225.39029"
     inkscape:window-width="1071"
     inkscape:window-height="991"
     inkscape:window-x="26"
     inkscape:window-y="23"
     inkscape:window-maximized="0"
     inkscape:current-layer="layer1" /><defs
     id="defs1"><linearGradient
       id="linearGradient23"
       inkscape:collect="always"><stop
         style="stop-color:#13a378;stop-opacity:1;"
         offset="0"
         id="stop23" /><stop
         style="stop-color:#4fba5d;stop-opacity:1;"
         offset="0.58523303"
         id="stop27" /><stop
         style="stop-color:#91d34f;stop-opacity:1;"
         offset="1"
         id="stop26" /></linearGradient><linearGradient
       id="linearGradient24"
       inkscape:collect="always"><stop
         style="stop-color:#35b56e;stop-opacity:1;"
         offset="0"
         id="stop24" /><stop
         style="stop-color:#b6ef56;stop-opacity:1;"
         offset="1"
         id="stop25" /></linearGradient><linearGradient
       inkscape:collect="always"
       xlink:href="#linearGradient24"
       id="linearGradient25"
       x1="139.93321"
       y1="179.32922"
       x2="141.03079"
       y2="15.236699"
       gradientUnits="userSpaceOnUse"
       gradientTransform="matrix(0.90781788,0,0,0.9202334,9.7157066,11.185594)" /><linearGradient
       inkscape:collect="always"
       xlink:href="#linearGradient23"
       id="linearGradient26"
       x1="134.98523"
       y1="176.37613"
       x2="135.57895"
       y2="79.596344"
       gradientUnits="userSpaceOnUse"
       gradientTransform="matrix(1.1425924,0,0,1.1425929,-25.223753,17.020171)" /></defs><g
     inkscape:label="tildr"
     inkscape:groupmode="layer"
     id="layer1"
     style="fill:#1f1f1f;fill-opacity:1"><rect
       style="display:inline;opacity:1;fill:#252529;fill-opacity:1;stroke:none;stroke-width:0;stroke-linecap:round;stroke-linejoin:round;stroke-miterlimit:1"
       id="rect1"
       width="270"
       height="270"
       x="0"
       y="0"
       inkscape:label="background"
       ry="38.860676"
       sodipodi:insensitive="true" /><path
       d="m 137.09009,28.383811 c -3.34785,-0.134775 -6.91601,0.811763 -10.9185,3.242249 0,0 -47.633006,28.925063 -71.449592,43.387688 -5.666442,3.440935 -9.643863,8.915461 -9.643863,16.927464 v 79.091498 c 5.298943,22.34822 78.301005,60.71452 78.310985,52.09848 l 0.12168,-105.12113 c -4.99749,-2.21172 -9.68983,-4.02133 -14.10716,-4.58757 -7.03801,-0.90217 -13.37779,1.2557 -19.43646,10.03111 -0.720911,1.04419 -1.700858,1.84582 -2.833511,2.19273 -1.132674,0.34692 -2.41433,0.21971 -3.647001,-0.55018 -3.327353,-2.07817 -6.62377,-4.31898 -9.496567,-7.05091 -1.384152,-1.31626 -1.806882,-2.93128 -1.617075,-4.53288 0.189807,-1.60157 0.953979,-3.20114 1.897144,-4.65843 8.140441,-12.577554 17.769247,-18.440611 28.5272,-19.556739 1.34474,-0.139514 2.70627,-0.205682 4.08471,-0.202109 9.64896,0.02501 20.11165,3.453923 31.22095,8.863195 11.71912,5.706203 19.97186,6.659153 26.14729,5.002243 6.17542,-1.65691 10.33258,-5.933823 13.83364,-10.861436 0.95559,-1.344939 2.04072,-1.821497 3.03385,-1.775672 0.99314,0.04582 1.85488,0.558479 2.52484,0.997691 3.44834,2.260657 6.53435,5.013393 9.65277,7.654824 1.39513,1.181713 2.11563,2.624183 2.20915,4.099673 0.0936,1.47551 -0.43148,2.96617 -1.43976,4.27228 -5.77905,7.48625 -12.34005,15.11381 -21.87074,18.90955 -6.5026,2.58974 -14.36859,3.37771 -24.25908,1.14508 l 1.11557,95.42481 c 0.12119,10.36587 70.2934,-26.54762 76.63903,-43.67422 1.3351,-3.92999 1.75048,-8.64127 1.70199,-13.92581 l -0.67366,-73.451568 c -0.0342,-3.736252 -0.53941,-6.931698 -2.17911,-9.901772 -1.63969,-2.970062 -4.42853,-5.736151 -9.09967,-8.567865 L 146.68608,31.62606 c -3.11956,-1.891142 -6.24775,-3.107275 -9.59555,-3.242249 z"
       style="baseline-shift:baseline;display:none;overflow:visible;fill:url(#linearGradient25);fill-opacity:1;stroke:#ffffff;stroke-width:3.65601;stroke-linecap:round;stroke-linejoin:round;stroke-miterlimit:1;stroke-dasharray:none;stroke-opacity:1;enable-background:accumulate;stop-color:#000000"
       id="path24"
       inkscape:label="logo-curve"
       sodipodi:nodetypes="scsssscsssssssscsssssscsscssccsccss"
       sodipodi:insensitive="true" /><path
       style="display:inline;opacity:1;fill:url(#linearGradient26);fill-opacity:1;stroke:none;stroke-width:4.57037;stroke-linecap:round;stroke-linejoin:round;stroke-miterlimit:1;stroke-dasharray:none;stroke-opacity:1"
       d="m 120.16213,223.56937 c 2.51015,1.43347 3.82924,0.37734 3.82431,-2.09963 l -0.2121,-106.67432 c -11.90348,-8.54337 -21.7926,-5.52009 -31.344344,5.55614 -1.84063,2.13441 -4.50632,2.35908 -6.52382,0.97482 l -10.273141,-7.04873 c -2.243513,-1.53935 -2.520219,-4.63504 -0.149973,-7.79859 42.232738,-56.367797 75.448538,19.23202 104.456148,-18.221725 1.79993,-2.324011 4.04945,-1.979483 5.39902,-0.899837 l 11.24797,8.99838 c 2.12751,1.70201 1.59019,4.469082 0.29994,6.898762 -8.31688,15.66138 -22.0862,24.9637 -47.99134,20.69627 l 0.44993,97.48244 c 0.0157,3.38099 2.70321,3.24767 4.64916,2.09961 l 61.72085,-36.41353 c 6.57682,-3.88014 11.32082,-9.96663 11.24097,-23.54243 l -0.42419,-72.111902 c -0.0441,-7.505026 -3.14844,-14.594506 -16.75541,-22.481943 L 147.20845,32.715114 c -7.13404,-4.135327 -15.18311,-4.464221 -23.3303,0.424188 L 58.761082,72.210226 C 51.649253,76.477397 46.09901,82.932437 46.163355,93.506388 l 0.449921,73.936672 c 0.05535,9.09769 4.745865,16.31964 13.197616,21.14619 20.046382,11.44796 60.351238,34.98012 60.351238,34.98012 z"
       id="path1"
       sodipodi:nodetypes="sscsssssssscsssssssssssss"
       inkscape:label="logo-straight-line"
       sodipodi:insensitive="true" /><text
       xml:space="preserve"
       style="font-size:5.17318px;font-family:Ubuntu;-inkscape-font-specification:Ubuntu;writing-mode:lr-tb;direction:ltr;opacity:1;fill:#ffffff;fill-opacity:1;stroke:none;stroke-width:1.04743;stroke-linecap:round;stroke-linejoin:round;stroke-miterlimit:1;stroke-opacity:1"
       x="196.50734"
       y="96.620529"
       id="text1"
       inkscape:label="copyright-symbol"
       sodipodi:insensitive="true"><tspan
         sodipodi:role="line"
         id="tspan1"
         style="font-size:5.17318px;fill:#ffffff;fill-opacity:1;stroke:none;stroke-width:1.04743;stroke-opacity:1"
         x="196.50734"
         y="96.620529">©</tspan></text></g><metadata
     id="metadata1"><rdf:RDF><cc:Work
         rdf:about=""><dc:creator><cc:Agent><dc:title>William C. Canin</dc:title></cc:Agent></dc:creator><dc:rights><cc:Agent><dc:title>© 2026 William C. Canin. Unauthorized use prohibited.</dc:title></cc:Agent></dc:rights><dc:publisher><cc:Agent><dc:title>William C. Canin</dc:title></cc:Agent></dc:publisher><dc:title>Tildr</dc:title><dc:source>Baloo 2</dc:source></cc:Work></rdf:RDF></metadata></svg>
