<?xml version="1.0" encoding="UTF-8" standalone="no"?>
<!--
Created with Inkscape (http://www.inkscape.org/)
  © 2026 William C. Canin
  This artwork is protected by copyright.
  Unauthorized use, copying, or modification is prohibited.
-->

<svg
   width="270mm"
   height="270mm"
   viewBox="0 0 270 270"
   version="1.1"
   id="svg1"
   xml:space="preserve"
   inkscape:version="1.4.3 (0d15f75042, 2025-12-25)"
   sodipodi:docname="tildr-variation-4.svg"
   xmlns:inkscape="http://www.inkscape.org/namespaces/inkscape"
   xmlns:sodipodi="http://sodipodi.sourceforge.net/DTD/sodipodi-0.dtd"
   xmlns:xlink="http://www.w3.org/1999/xlink"
   xmlns="http://www.w3.org/2000/svg"
   xmlns:svg="http://www.w3.org/2000/svg"
   xmlns:rdf="http://www.w3.org/1999/02/22-rdf-syntax-ns#"
   xmlns:cc="http://creativecommons.org/ns#"
   xmlns:dc="http://purl.org/dc/elements/1.1/"><title
     id="title1">Tildr</title><sodipodi:namedview
     id="namedview1"
     pagecolor="#ffffff"
     bordercolor="#000000"
     borderopacity="0.25"
     inkscape:showpageshadow="2"
     inkscape:pageopacity="0.0"
     inkscape:pagecheckerboard="0"
     inkscape:deskcolor="#d1d1d1"
     inkscape:document-units="mm"
     inkscape:zoom="0.32"
     inkscape:cx="559.375"
     inkscape:cy="893.75"
     inkscape:window-width="1071"
     inkscape:window-height="991"
     inkscape:window-x="26"
     inkscape:window-y="23"
     inkscape:window-maximized="0"
     inkscape:current-layer="layer1" /><defs
     id="defs1"><linearGradient
       id="linearGradient23"
       inkscape:collect="always"><stop
         style="stop-color:#13a378;stop-opacity:1;"
         offset="0"
         id="stop23" /><stop
         style="stop-color:#4fba5d;stop-opacity:1;"
         offset="0.58523303"
         id="stop27" /><stop
         style="stop-color:#91d34f;stop-opacity:1;"
         offset="1"
         id="stop26" /></linearGradient><linearGradient
       id="linearGradient24"
       inkscape:collect="always"><stop
         style="stop-color:#35b56e;stop-opacity:1;"
         offset="0"
         id="stop24" /><stop
         style="stop-color:#b6ef56;stop-opacity:1;"
         offset="1"
         id="stop25" /></linearGradient><linearGradient
       inkscape:collect="always"
       xlink:href="#linearGradient24"
       id="linearGradient25"
       x1="139.93321"
       y1="179.32922"
       x2="141.03079"
       y2="15.236699"
       gradientUnits="userSpaceOnUse"
       gradientTransform="matrix(0.82432423,0,0,0.83559787,20.5498,24.355032)" /><linearGradient
       inkscape:collect="always"
       xlink:href="#linearGradient23"
       id="linearGradient26"
       x1="134.98523"
       y1="176.37613"
       x2="135.57895"
       y2="79.596344"
       gradientUnits="userSpaceOnUse"
       gradientTransform="matrix(1.1089603,0,0,1.1089636,-22.457785,28.315764)" /></defs><g
     inkscape:label="tildr"
     inkscape:groupmode="layer"
     id="layer1"
     style="fill:#1f1f1f;fill-opacity:1"><rect
       style="display:none;opacity:1;fill:#252529;fill-opacity:1;stroke:none;stroke-width:0;stroke-linecap:round;stroke-linejoin:round;stroke-miterlimit:1"
       id="rect1"
       width="270"
       height="270"
       x="0"
       y="0"
       inkscape:label="background"
       ry="38.860676"
       sodipodi:insensitive="true" /><path
       d="m 136.20932,39.971498 c -3.03994,-0.12238 -6.27993,0.737103 -9.9143,2.944053 0,0 -43.25211,26.264772 -64.87824,39.397243 -5.14529,3.124466 -8.7569,8.095489 -8.7569,15.370614 v 71.817312 c 4.81159,20.2928 71.09951,55.13049 71.10858,47.30688 l 0.11048,-95.45295 c -4.53785,-2.0083 -8.79863,-3.65148 -12.80969,-4.16564 -6.39071,-0.8192 -12.14741,1.14022 -17.64885,9.10854 -0.65461,0.94814 -1.54443,1.67604 -2.57291,1.99105 -1.0285,0.31501 -2.19228,0.1995 -3.31158,-0.49958 -3.02133,-1.88703 -6.01457,-3.92175 -8.62315,-6.40242 -1.25685,-1.19521 -1.6407,-2.66169 -1.46835,-4.11598 0.17235,-1.45427 0.86624,-2.90673 1.72266,-4.22999 7.39175,-11.42077 16.13498,-16.744592 25.90351,-17.758067 1.22105,-0.126683 2.45736,-0.186766 3.70902,-0.183522 8.76153,0.02271 18.26195,3.13626 28.3495,8.048029 10.64129,5.18139 18.13502,6.0467 23.74248,4.54218 5.60745,-1.50452 9.38228,-5.38808 12.56133,-9.86249 0.8677,-1.221242 1.85304,-1.65397 2.75482,-1.61236 0.9018,0.0416 1.68429,0.507115 2.29263,0.905932 3.1312,2.05274 5.93337,4.552298 8.76499,6.950798 1.26682,1.07302 1.92105,2.38283 2.00597,3.72262 0.085,1.33979 -0.39179,2.69336 -1.30734,3.87935 -5.24754,6.79771 -11.20512,13.72375 -19.85925,17.1704 -5.90454,2.35156 -13.04709,3.06705 -22.02793,1.03976 l 1.01297,86.64842 c 0.11004,9.4125 63.82839,-24.10599 69.5904,-39.65742 1.21231,-3.56855 1.58948,-7.84652 1.54545,-12.64503 l -0.6117,-66.696092 c -0.0311,-3.392621 -0.4898,-6.294177 -1.97869,-8.991087 -1.48888,-2.6969 -4.02123,-5.208587 -8.26276,-7.779863 L 144.92276,42.915551 c -2.83266,-1.717211 -5.67313,-2.821493 -8.71303,-2.944053 z"
       style="baseline-shift:baseline;display:none;overflow:visible;fill:url(#linearGradient25);fill-opacity:1;stroke:#ffffff;stroke-width:3.31976;stroke-linecap:round;stroke-linejoin:round;stroke-miterlimit:1;stroke-dasharray:none;stroke-opacity:1;enable-background:accumulate;stop-color:#000000"
       id="path24"
       inkscape:label="logo-curve"
       sodipodi:nodetypes="scsssscsssssssscsssssscsscssccsccss"
       sodipodi:insensitive="true" /><path
       style="display:inline;opacity:1;fill:url(#linearGradient26);fill-opacity:1;stroke:none;stroke-width:4.43586;stroke-linecap:round;stroke-linejoin:round;stroke-miterlimit:1;stroke-dasharray:none;stroke-opacity:1"
       d="m 118.64868,228.78573 c 2.43626,1.39128 3.71652,0.36623 3.71173,-2.03783 l -0.20586,-103.53464 c -11.55309,-8.29193 -21.15113,-5.35762 -30.421716,5.3926 -1.786461,2.07159 -4.373682,2.28966 -6.331791,0.94613 l -9.970755,-6.84126 c -2.177477,-1.49404 -2.446037,-4.49863 -0.145559,-7.56906 40.989621,-54.708765 73.227721,18.66598 101.381481,-17.685423 1.74695,-2.255611 3.93026,-1.921223 5.24011,-0.873352 l 10.91688,8.733535 c 2.06489,1.65191 1.54339,4.33755 0.29111,6.69571 -8.07207,15.20044 -21.43609,24.22897 -46.57872,20.08714 l 0.43669,94.6133 c 0.0153,3.28148 2.62364,3.15208 4.51231,2.03782 l 59.9041,-35.34181 c 6.38324,-3.76593 10.98759,-9.67329 10.91009,-22.84952 l -0.4117,-69.98947 C 221.8443,93.285462 218.83132,86.404643 205.62487,78.749354 L 144.89888,43.548767 c -6.92405,-4.013614 -14.7362,-4.332828 -22.64357,0.411703 L 59.054959,81.881443 C 52.152467,86.02302 46.765595,92.288074 46.828046,102.55081 l 0.436677,71.76055 c 0.05372,8.82991 4.606171,15.83931 12.809145,20.5238 19.456317,11.11101 58.574812,33.95057 58.574812,33.95057 z"
       id="path1"
       sodipodi:nodetypes="sscsssssssscsssssssssssss"
       inkscape:label="logo-straight-line" /><text
       xml:space="preserve"
       style="font-size:5.17318px;font-family:Ubuntu;-inkscape-font-specification:Ubuntu;writing-mode:lr-tb;direction:ltr;opacity:1;fill:#ffffff;fill-opacity:1;stroke:none;stroke-width:1.04743;stroke-linecap:round;stroke-linejoin:round;stroke-miterlimit:1;stroke-opacity:1"
       x="193.75533"
       y="103.00584"
       id="text1"
       inkscape:label="copyright-symbol"><tspan
         sodipodi:role="line"
         id="tspan1"
         style="font-size:5.17318px;fill:#ffffff;fill-opacity:1;stroke:none;stroke-width:1.04743;stroke-opacity:1"
         x="193.75533"
         y="103.00584">©</tspan></text></g><metadata
     id="metadata1"><rdf:RDF><cc:Work
         rdf:about=""><dc:creator><cc:Agent><dc:title>William C. Canin</dc:title></cc:Agent></dc:creator><dc:rights><cc:Agent><dc:title>© 2026 William C. Canin. Unauthorized use prohibited.</dc:title></cc:Agent></dc:rights><dc:publisher><cc:Agent><dc:title>William C. Canin</dc:title></cc:Agent></dc:publisher><dc:title>Tildr</dc:title><dc:source>Baloo 2</dc:source></cc:Work></rdf:RDF></metadata></svg>
