<?xml version="1.0" encoding="UTF-8" standalone="no"?>
<!--
Created with Inkscape (http://www.inkscape.org/)
  © 2026 William C. Canin
  This artwork is protected by copyright.
  Unauthorized use, copying, or modification is prohibited.
-->

<svg
   width="270mm"
   height="270mm"
   viewBox="0 0 270 270"
   version="1.1"
   id="svg1"
   xml:space="preserve"
   inkscape:version="1.4.3 (0d15f75042, 2025-12-25)"
   sodipodi:docname="tildr-git.svg"
   xmlns:inkscape="http://www.inkscape.org/namespaces/inkscape"
   xmlns:sodipodi="http://sodipodi.sourceforge.net/DTD/sodipodi-0.dtd"
   xmlns:xlink="http://www.w3.org/1999/xlink"
   xmlns="http://www.w3.org/2000/svg"
   xmlns:svg="http://www.w3.org/2000/svg"
   xmlns:rdf="http://www.w3.org/1999/02/22-rdf-syntax-ns#"
   xmlns:cc="http://creativecommons.org/ns#"
   xmlns:dc="http://purl.org/dc/elements/1.1/"><title
     id="title1">Tildr</title><sodipodi:namedview
     id="namedview1"
     pagecolor="#ffffff"
     bordercolor="#000000"
     borderopacity="0.25"
     inkscape:showpageshadow="2"
     inkscape:pageopacity="0.0"
     inkscape:pagecheckerboard="0"
     inkscape:deskcolor="#d1d1d1"
     inkscape:document-units="mm"
     inkscape:zoom="0.22627417"
     inkscape:cx="678.38057"
     inkscape:cy="574.52426"
     inkscape:window-width="1342"
     inkscape:window-height="991"
     inkscape:window-x="26"
     inkscape:window-y="23"
     inkscape:window-maximized="0"
     inkscape:current-layer="layer1" /><defs
     id="defs1"><linearGradient
       id="linearGradient23"
       inkscape:collect="always"><stop
         style="stop-color:#13a378;stop-opacity:1;"
         offset="0"
         id="stop23" /><stop
         style="stop-color:#4fba5d;stop-opacity:1;"
         offset="0.58523303"
         id="stop27" /><stop
         style="stop-color:#91d34f;stop-opacity:1;"
         offset="1"
         id="stop26" /></linearGradient><linearGradient
       id="linearGradient24"
       inkscape:collect="always"><stop
         style="stop-color:#35b56e;stop-opacity:1;"
         offset="0"
         id="stop24" /><stop
         style="stop-color:#b6ef56;stop-opacity:1;"
         offset="1"
         id="stop25" /></linearGradient><linearGradient
       inkscape:collect="always"
       xlink:href="#linearGradient24"
       id="linearGradient25"
       x1="139.93321"
       y1="179.32922"
       x2="141.03079"
       y2="15.236699"
       gradientUnits="userSpaceOnUse"
       gradientTransform="matrix(0.82432423,0,0,0.83559787,20.5498,-4.9414673)" /><linearGradient
       inkscape:collect="always"
       xlink:href="#linearGradient23"
       id="linearGradient26"
       x1="134.98523"
       y1="176.37613"
       x2="135.57895"
       y2="79.596344"
       gradientUnits="userSpaceOnUse"
       gradientTransform="matrix(0.93567686,0,0,0.93567722,2.9048097,11.102877)" /></defs><g
     inkscape:label="tildr"
     inkscape:groupmode="layer"
     id="layer1"
     style="fill:#1f1f1f;fill-opacity:1"><rect
       style="display:inline;opacity:1;fill:#252529;fill-opacity:1;stroke:none;stroke-width:0;stroke-linecap:round;stroke-linejoin:round;stroke-miterlimit:1"
       id="rect1"
       width="270"
       height="270"
       x="0"
       y="0"
       inkscape:label="background"
       ry="38.860676"
       sodipodi:insensitive="true" /><text
       xml:space="preserve"
       style="font-size:5.17318px;font-family:Ubuntu;-inkscape-font-specification:Ubuntu;writing-mode:lr-tb;direction:ltr;opacity:1;fill:#ffffff;fill-opacity:1;stroke:none;stroke-width:1.04743;stroke-linecap:round;stroke-linejoin:round;stroke-miterlimit:1;stroke-opacity:1"
       x="223.7925"
       y="209.48186"
       id="text1"
       inkscape:label="copyright-symbol"><tspan
         sodipodi:role="line"
         id="tspan1"
         style="font-size:5.17318px;fill:#ffffff;fill-opacity:1;stroke:none;stroke-width:1.04743;stroke-opacity:1"
         x="223.7925"
         y="209.48186">©</tspan></text><g
       inkscape:groupmode="layer"
       id="layer3"
       inkscape:label="text"
       style="display:inline"><path
         style="font-weight:bold;font-size:120px;font-family:'Baloo 2';-inkscape-font-specification:'Baloo 2 Bold';dominant-baseline:middle;text-anchor:middle;display:inline;fill:#ffffff;fill-opacity:1;stroke-width:0.601994"
         d="m 54.720762,211.13724 -0.07261,-8.76728 c 7.479623,0 14.959237,0 22.43886,0 0.290463,0.4312 0.556729,1.03002 0.798789,1.79657 0.24206,0.76653 0.36309,1.58099 0.36309,2.44334 0,1.53307 -0.36309,2.68287 -1.08927,3.44942 -0.677758,0.71863 -1.621782,1.07795 -2.832092,1.07795 z m 10.239087,-8.76728 0.07261,8.76728 H 42.593607 c -0.338875,-0.43118 -0.629347,-1.03005 -0.871407,-1.79657 -0.193647,-0.76655 -0.290462,-1.58099 -0.290462,-2.44334 0,-1.58098 0.338884,-2.7308 1.016651,-3.44943 0.726171,-0.71862 1.670205,-1.07794 2.832083,-1.07794 6.559795,0 13.119591,0 19.679377,0 z m -10.820021,6.82698 h 11.110494 v 36.6501 c -0.484121,0.14372 -1.210291,0.26348 -2.17853,0.35932 -0.968231,0.14372 -1.960677,0.2157 -2.977319,0.2157 -2.17853,0 -3.727704,-0.38329 -4.647531,-1.1498 -0.871406,-0.76656 -1.307114,-2.108 -1.307114,-4.02433 z m 29.11976,-7.68934 c 0,-1.62889 0.556729,-2.99428 1.670204,-4.09618 1.161879,-1.10191 2.614238,-1.65284 4.357051,-1.65284 1.791234,0 3.243594,0.55093 4.35706,1.65284 1.113475,1.1019 1.670185,2.46729 1.670185,4.09618 0,1.581 -0.55671,2.9464 -1.670185,4.09619 -1.113466,1.14981 -2.565826,1.72472 -4.35706,1.72472 -1.742813,0 -3.195172,-0.57491 -4.357051,-1.72472 -1.113475,-1.14979 -1.670204,-2.51519 -1.670204,-4.09619 z m 0.653553,25.43948 h 10.747404 v 18.89996 c -0.435708,0.14372 -1.08926,0.26348 -1.960676,0.35932 -0.871415,0.14372 -1.81543,0.2157 -2.832082,0.2157 -2.081715,0 -3.606683,-0.35932 -4.574914,-1.07795 -0.919827,-0.71862 -1.379732,-2.01216 -1.379732,-3.8806 z m 10.747404,5.53345 H 83.913141 v -20.62466 c 0.435708,-0.14372 1.08927,-0.28745 1.960676,-0.43118 0.919828,-0.14372 1.888058,-0.21547 2.904701,-0.21547 2.081695,0 3.582467,0.35932 4.502304,1.07795 0.919819,0.67071 1.379723,1.98818 1.379723,3.95246 z m 9.077145,-5.53345 10.82004,0.21549 v 18.68437 c -0.48412,0.14371 -1.16187,0.26347 -2.03329,0.35931 -0.87142,0.14371 -1.81545,0.2157 -2.83209,0.2157 -2.0333,0 -3.53404,-0.35932 -4.50229,-1.07794 -0.96824,-0.71864 -1.45237,-2.01217 -1.45237,-3.88061 z m 10.82004,5.74904 -10.82004,-0.21548 v -33.34439 c 0.48413,-0.14374 1.16188,-0.28746 2.03329,-0.43119 0.87143,-0.14371 1.81545,-0.21547 2.8321,-0.21547 2.08172,0 3.58248,0.35932 4.50229,1.07796 0.96824,0.71861 1.45236,2.0361 1.45236,3.95244 z m 31.37079,4.6711 v -21.63076 h 10.74741 v 22.99615 c 0,1.14981 -0.24206,2.13192 -0.72617,2.94638 -0.48412,0.76652 -1.25872,1.46121 -2.32377,2.08403 -1.30711,0.86235 -3.02575,1.60492 -5.15584,2.22774 -2.08172,0.67072 -4.50231,1.00609 -7.26178,1.00609 -4.01816,0 -7.50381,-0.67073 -10.45693,-2.01217 -2.9047,-1.34145 -5.15586,-3.3536 -6.75344,-6.03648 -1.54918,-2.7308 -2.32377,-6.10836 -2.32377,-10.13268 0,-4.21596 0.79879,-7.66538 2.39637,-10.34825 1.64603,-2.73081 3.84875,-4.76693 6.60821,-6.10836 2.75948,-1.34145 5.80942,-2.01216 9.14984,-2.01216 1.74281,0 3.29198,0.19171 4.64752,0.5749 1.35554,0.38327 2.469,0.83839 3.34041,1.3654 v 8.76727 c -0.67774,-0.5749 -1.57338,-1.1019 -2.68685,-1.58098 -1.11346,-0.47909 -2.39638,-0.71863 -3.84873,-0.71863 -1.69441,0 -3.19519,0.35931 -4.50229,1.07794 -1.30712,0.71864 -2.32377,1.82053 -3.04996,3.3057 -0.72617,1.48516 -1.08926,3.37756 -1.08926,5.67717 0,3.35359 0.75039,5.8209 2.25114,7.40188 1.54918,1.58098 3.63089,2.37149 6.24513,2.37149 1.06506,0 2.0091,-0.11975 2.83208,-0.35932 0.82301,-0.28746 1.47657,-0.5749 1.96068,-0.86235 z m 10.74741,-19.54673 -10.74741,0.0717 v -18.75615 c 0.43571,-0.14375 1.08927,-0.28747 1.96068,-0.43119 0.87142,-0.14372 1.81544,-0.21548 2.83209,-0.21548 2.13011,0 3.65509,0.35932 4.57491,1.07795 0.9198,0.71863 1.37973,2.03611 1.37973,3.95246 z m 13.57949,15.88171 -0.43572,-7.18629 18.00917,-2.80266 c -0.0968,-1.34145 -0.67777,-2.58705 -1.74281,-3.73686 -1.06508,-1.14981 -2.63846,-1.72472 -4.72015,-1.72472 -2.17851,0 -3.99398,0.74258 -5.44633,2.22775 -1.45234,1.43726 -2.22695,3.49733 -2.32375,6.18022 l 0.36307,4.95854 c 0.43572,2.63496 1.57337,4.52735 3.41303,5.67716 1.83965,1.10191 4.01818,1.65286 6.5356,1.65286 2.03329,0 3.94555,-0.28746 5.73679,-0.86236 1.79121,-0.5749 3.24357,-1.17378 4.35704,-1.79657 0.72619,0.43117 1.30713,1.03003 1.74283,1.79657 0.48412,0.76653 0.72618,1.58099 0.72618,2.44335 0,1.43725 -0.58094,2.63495 -1.74282,3.59314 -1.11349,0.95817 -2.68685,1.67681 -4.72015,2.15589 -1.98489,0.47906 -4.26024,0.71863 -6.82605,0.71863 -3.72772,0 -7.09233,-0.6947 -10.09386,-2.08403 -2.95312,-1.38936 -5.27689,-3.47339 -6.97128,-6.25208 -1.69444,-2.7787 -2.54162,-6.25207 -2.54162,-10.42011 0,-3.06617 0.4841,-5.7251 1.45235,-7.97678 1.01664,-2.25174 2.34796,-4.0962 3.99396,-5.53346 1.69442,-1.48517 3.58247,-2.58707 5.66418,-3.3057 2.1301,-0.71863 4.33283,-1.07794 6.6082,-1.07794 3.34042,0 6.24512,0.67071 8.71412,2.01216 2.5174,1.29354 4.47807,3.06614 5.88203,5.31786 1.40394,2.2517 2.10592,4.86271 2.10592,7.83305 0,1.48516 -0.4115,2.61102 -1.2345,3.37756 -0.82302,0.76653 -1.96068,1.24563 -3.41303,1.43726 z m 45.09553,-13.0072 v 8.98288 h -10.74742 v -10.27639 c 0,-1.34145 0.29035,-2.78022 0.91972,-3.69048 0.67775,-0.95816 1.49728,-1.73577 2.78377,-2.20228 3.21229,-1.16484 8.14222,-2.2236 12.85332,-3.09012 4.85488,-0.89295 7.40701,1.62887 7.40701,4.88668 0,0.76653 -0.12099,1.48516 -0.3631,2.15589 -0.19371,0.67071 -0.43569,1.24562 -0.72616,1.72471 -0.4841,-0.0958 -1.08926,-0.16772 -1.81546,-0.21547 -0.67775,-0.0958 -1.42812,-0.14373 -2.25113,-0.14373 -1.45236,0 -2.9047,0.16772 -4.35707,0.50304 -1.45234,0.33534 -2.68685,0.7905 -3.70348,1.3654 z m -10.74742,6.25208 10.74742,0.21549 v 18.68437 c -0.48411,0.14371 -1.16189,0.26347 -2.0333,0.35931 -0.87142,0.14371 -1.81545,0.2157 -2.83209,0.2157 -2.03329,0 -3.53403,-0.35932 -4.50229,-1.07794 -0.91981,-0.71864 -1.37974,-2.01217 -1.37974,-3.88061 z"
         id="text1-5-9"
         aria-label="Tildr"
         sodipodi:nodetypes="cccsscscccccscscccccscscscssssscsccccscscccccscscccccsssccccsscsccccscccsccscsssccssssscscccccssssccccssccccssccsccscsscccscssscccccscssscccsscccccscscc"
         inkscape:label="font-baloo-2-in-path" /></g><path
       d="m 136.20932,10.674998 c -3.03994,-0.12238 -6.27993,0.737103 -9.9143,2.944053 0,0 -43.25211,26.264772 -64.87824,39.397243 -5.14529,3.124466 -8.7569,8.095489 -8.7569,15.370614 v 71.817312 c 4.81159,20.2928 71.09951,55.13049 71.10858,47.30688 l 0.11048,-95.452948 c -4.53785,-2.008305 -8.79863,-3.651484 -12.80969,-4.16564 -6.39071,-0.819199 -12.14741,1.140215 -17.64885,9.108534 -0.65461,0.948144 -1.54443,1.676049 -2.57291,1.991054 -1.0285,0.315014 -2.19228,0.199504 -3.31158,-0.499577 -3.02133,-1.887032 -6.01457,-3.921757 -8.62315,-6.402426 -1.25685,-1.195203 -1.6407,-2.661682 -1.46835,-4.115976 0.17235,-1.454275 0.86624,-2.906726 1.72266,-4.229987 7.39175,-11.420775 16.13498,-16.744596 25.90351,-17.758071 1.22105,-0.126683 2.45736,-0.186766 3.70902,-0.183522 8.76153,0.02271 18.26195,3.13626 28.3495,8.048029 10.64129,5.181394 18.13502,6.046698 23.74248,4.542178 5.60745,-1.504522 9.38228,-5.388075 12.56133,-9.862488 0.8677,-1.221242 1.85304,-1.65397 2.75482,-1.61236 0.9018,0.0416 1.68429,0.507115 2.29263,0.905932 3.1312,2.05274 5.93337,4.552301 8.76499,6.950799 1.26682,1.073022 1.92105,2.382829 2.00597,3.722615 0.085,1.339796 -0.39179,2.69336 -1.30734,3.879355 -5.24754,6.797713 -11.20512,13.723751 -19.85925,17.170397 -5.90454,2.351562 -13.04709,3.067052 -22.02793,1.039762 l 1.01297,86.64842 c 0.11004,9.4125 63.82839,-24.10599 69.5904,-39.65742 1.21231,-3.56855 1.58948,-7.84652 1.54545,-12.64503 l -0.6117,-66.696092 c -0.0311,-3.392621 -0.4898,-6.294177 -1.97869,-8.991087 -1.48888,-2.6969 -4.02123,-5.208587 -8.26276,-7.779863 L 144.92276,13.619051 c -2.83266,-1.717211 -5.67313,-2.821493 -8.71303,-2.944053 z"
       style="baseline-shift:baseline;display:none;overflow:visible;fill:url(#linearGradient25);fill-opacity:1;stroke:#ffffff;stroke-width:3.31976;stroke-linecap:round;stroke-linejoin:round;stroke-miterlimit:1;stroke-dasharray:none;stroke-opacity:1;enable-background:accumulate;stop-color:#000000"
       id="path24"
       inkscape:label="logo-curve"
       sodipodi:nodetypes="scsssscsssssssscsssssscsscssccsccss"
       sodipodi:insensitive="true" /><path
       style="display:inline;opacity:1;fill:url(#linearGradient26);fill-opacity:1;stroke:#ffffff;stroke-width:3.74271;stroke-linecap:round;stroke-linejoin:round;stroke-miterlimit:1;stroke-dasharray:none;stroke-opacity:1"
       d="m 121.96232,180.24745 c 2.05558,1.17388 3.13579,0.30901 3.13175,-1.7194 l -0.17369,-87.356339 c -9.74784,-6.996237 -17.84611,-4.520442 -25.668094,4.549956 -1.50731,1.747877 -3.690264,1.931872 -5.342401,0.798289 l -8.41275,-5.772254 C 83.659906,89.487121 83.43331,86.952034 85.374321,84.361379 119.959,38.201403 147.15965,100.11062 170.91418,69.439487 c 1.47398,-1.903149 3.31613,-1.621013 4.4213,-0.736883 l 9.21104,7.368834 c 1.74223,1.393789 1.30222,3.659764 0.24562,5.649442 -6.81075,12.825214 -18.08654,20.44295 -39.30044,16.94832 l 0.36845,79.82905 c 0.0129,2.76872 2.21368,2.65954 3.80723,1.71939 l 50.54363,-29.8193 c 5.38581,-3.17747 9.2707,-8.16174 9.20531,-19.27906 l -0.34737,-59.05293 c -0.0361,-6.145922 -2.57828,-11.951546 -13.72112,-18.410623 L 144.11074,23.955576 c -5.84212,-3.386448 -12.43356,-3.655782 -19.10535,0.34737 L 71.680575,56.298398 c -5.823926,3.494416 -10.369059,8.780493 -10.316366,17.439578 l 0.368443,60.547254 c 0.04533,7.45016 3.886422,13.36426 10.80762,17.31676 16.416121,9.37481 49.422048,28.64546 49.422048,28.64546 z"
       id="path1"
       sodipodi:nodetypes="sscsssssssscsssssssssssss"
       inkscape:label="logo-straight-line" /></g><metadata
     id="metadata1"><rdf:RDF><cc:Work
         rdf:about=""><dc:creator><cc:Agent><dc:title>William C. Canin</dc:title></cc:Agent></dc:creator><dc:rights><cc:Agent><dc:title>© 2026 William C. Canin. Unauthorized use prohibited.</dc:title></cc:Agent></dc:rights><dc:publisher><cc:Agent><dc:title>William C. Canin</dc:title></cc:Agent></dc:publisher><dc:title>Tildr</dc:title><dc:source>Baloo 2</dc:source></cc:Work></rdf:RDF></metadata></svg>
